<svg width="82" height="493" viewBox="0 0 82 493" fill="none" xmlns="http://www.w3.org/2000/svg">
<path opacity="0.5" d="M40.6865 123.821L41.9854 118.763L66.7656 121.258V146.79H60.9209L60.9209 126.624L47.3857 125.12C47.9098 126.032 48.3997 127.182 48.8555 128.572C49.3112 129.985 49.5391 131.603 49.5391 133.426C49.5391 135.727 49.1403 137.789 48.3428 139.612C47.568 141.435 46.4515 142.985 44.9932 144.261C43.5348 145.56 41.7803 146.551 39.7295 147.234C37.6787 147.918 35.3887 148.26 32.8594 148.26C30.4668 148.26 28.2679 147.929 26.2627 147.269C24.2575 146.631 22.5029 145.662 20.999 144.363C19.5179 143.064 18.3672 141.424 17.5469 139.441C16.7266 137.482 16.3164 135.169 16.3164 132.503C16.3164 130.498 16.5898 128.595 17.1367 126.795C17.7064 125.018 18.5609 123.423 19.7002 122.01C20.8623 120.62 22.2979 119.48 24.0068 118.592C25.7386 117.726 27.7666 117.179 30.0908 116.951L30.0908 122.967C28.2223 123.24 26.6501 123.787 25.374 124.607C24.098 125.428 23.1296 126.499 22.4688 127.82C21.8307 129.165 21.5117 130.726 21.5117 132.503C21.5117 134.007 21.7738 135.34 22.2979 136.502C22.8219 137.664 23.5739 138.644 24.5537 139.441C25.5335 140.239 26.7184 140.843 28.1084 141.253C29.4984 141.686 31.0592 141.902 32.791 141.902C34.3633 141.902 35.8216 141.686 37.166 141.253C38.5104 140.82 39.6839 140.171 40.6865 139.305C41.6891 138.462 42.4639 137.425 43.0107 136.194C43.5804 134.964 43.8652 133.551 43.8652 131.956C43.8652 129.837 43.5804 128.23 43.0107 127.137C42.4411 126.066 41.6663 124.961 40.6865 123.821ZM66.834 179.466V180.013H61.4678V179.466C61.4678 176.116 60.9209 173.313 59.8271 171.058C58.7562 168.802 57.3092 167.013 55.4863 165.691C53.6862 164.37 51.6582 163.413 49.4023 162.82C47.1465 162.251 44.8564 161.966 42.5322 161.966H35.2178C33.0075 161.966 31.0479 162.228 29.3389 162.752C27.6527 163.276 26.2285 163.994 25.0664 164.905C23.9043 165.817 23.027 166.842 22.4346 167.981C21.8421 169.144 21.5459 170.351 21.5459 171.604C21.5459 173.063 21.8193 174.362 22.3662 175.501C22.9359 176.64 23.722 177.597 24.7246 178.372C25.75 179.17 26.9577 179.773 28.3477 180.184C29.7376 180.594 31.2643 180.799 32.9277 180.799C34.4089 180.799 35.833 180.617 37.2002 180.252C38.5902 179.887 39.8206 179.329 40.8916 178.577C41.9854 177.825 42.8398 176.88 43.4551 175.74C44.0931 174.624 44.4121 173.291 44.4121 171.741C44.4121 169.987 43.9792 168.346 43.1133 166.819C42.2702 165.315 41.1536 164.074 39.7637 163.094C38.3965 162.137 36.904 161.59 35.2861 161.453L35.3203 158.104C37.8724 158.423 40.0485 159.015 41.8486 159.881C43.6715 160.77 45.1527 161.863 46.292 163.162C47.4541 164.484 48.2972 165.953 48.8213 167.571C49.3682 169.212 49.6416 170.944 49.6416 172.767C49.6416 175.25 49.1745 177.392 48.2402 179.192C47.306 180.993 46.0527 182.474 44.4805 183.636C42.931 184.798 41.1764 185.652 39.2168 186.199C37.2799 186.769 35.2861 187.054 33.2354 187.054C30.8883 187.054 28.6895 186.723 26.6387 186.062C24.5879 185.402 22.7878 184.41 21.2383 183.089C19.6888 181.79 18.4811 180.184 17.6152 178.27C16.7493 176.355 16.3164 174.134 16.3164 171.604C16.3164 168.916 16.8633 166.569 17.957 164.563C19.0736 162.558 20.5547 160.895 22.4004 159.573C24.2461 158.252 26.2969 157.26 28.5527 156.6C30.8086 155.939 33.0986 155.608 35.4229 155.608H38.3965C41.9056 155.608 45.3464 155.962 48.7188 156.668C52.0911 157.374 55.1445 158.593 57.8789 160.325C60.6133 162.08 62.7894 164.507 64.4072 167.605C66.0251 170.704 66.834 174.658 66.834 179.466ZM66.834 218.841V219.388H61.4678V218.841C61.4678 215.491 60.9209 212.688 59.8271 210.433C58.7562 208.177 57.3092 206.388 55.4863 205.066C53.6862 203.745 51.6582 202.788 49.4023 202.195C47.1465 201.626 44.8564 201.341 42.5322 201.341H35.2178C33.0075 201.341 31.0479 201.603 29.3389 202.127C27.6527 202.651 26.2285 203.369 25.0664 204.28C23.9043 205.192 23.027 206.217 22.4346 207.356C21.8421 208.519 21.5459 209.726 21.5459 210.979C21.5459 212.438 21.8193 213.737 22.3662 214.876C22.9359 216.015 23.722 216.972 24.7246 217.747C25.75 218.545 26.9577 219.148 28.3477 219.559C29.7376 219.969 31.2643 220.174 32.9277 220.174C34.4089 220.174 35.833 219.992 37.2002 219.627C38.5902 219.262 39.8206 218.704 40.8916 217.952C41.9854 217.2 42.8398 216.255 43.4551 215.115C44.0931 213.999 44.4121 212.666 44.4121 211.116C44.4121 209.362 43.9792 207.721 43.1133 206.194C42.2702 204.69 41.1536 203.449 39.7637 202.469C38.3965 201.512 36.904 200.965 35.2861 200.828L35.3203 197.479C37.8724 197.798 40.0485 198.39 41.8486 199.256C43.6715 200.145 45.1527 201.238 46.292 202.537C47.4541 203.859 48.2972 205.328 48.8213 206.946C49.3682 208.587 49.6416 210.319 49.6416 212.142C49.6416 214.625 49.1745 216.767 48.2402 218.567C47.306 220.368 46.0527 221.849 44.4805 223.011C42.931 224.173 41.1764 225.027 39.2168 225.574C37.2799 226.144 35.2861 226.429 33.2354 226.429C30.8883 226.429 28.6895 226.098 26.6387 225.438C24.5879 224.777 22.7878 223.785 21.2383 222.464C19.6888 221.165 18.4811 219.559 17.6152 217.645C16.7493 215.73 16.3164 213.509 16.3164 210.979C16.3164 208.291 16.8633 205.944 17.957 203.938C19.0736 201.933 20.5547 200.27 22.4004 198.948C24.2461 197.627 26.2969 196.635 28.5527 195.975C30.8086 195.314 33.0986 194.983 35.4229 194.983H38.3965C41.9056 194.983 45.3464 195.337 48.7188 196.043C52.0911 196.749 55.1445 197.968 57.8789 199.7C60.6133 201.455 62.7894 203.882 64.4072 206.98C66.0251 210.079 66.834 214.033 66.834 218.841ZM22.2979 240.237V240.887C22.2979 244.533 22.8105 247.495 23.8359 249.773C24.8613 252.052 26.2399 253.807 27.9717 255.037C29.7035 256.268 31.6517 257.111 33.8164 257.566C36.0039 258.022 38.2484 258.25 40.5498 258.25H48.1719C50.4277 258.25 52.4329 257.988 54.1875 257.464C55.9421 256.963 57.4118 256.256 58.5967 255.345C59.7816 254.456 60.6816 253.442 61.2969 252.303C61.9121 251.163 62.2197 249.956 62.2197 248.68C62.2197 247.221 61.9235 245.911 61.3311 244.749C60.7614 243.61 59.9525 242.641 58.9043 241.844C57.8561 241.069 56.6257 240.477 55.2129 240.066C53.8001 239.656 52.262 239.451 50.5986 239.451C49.1175 239.451 47.682 239.633 46.292 239.998C44.902 240.363 43.6488 240.921 42.5322 241.673C41.4157 242.425 40.527 243.359 39.8662 244.476C39.2282 245.615 38.9092 246.948 38.9092 248.475C38.9092 249.887 39.1826 251.209 39.7295 252.439C40.2992 253.693 41.0625 254.798 42.0195 255.755C42.9993 256.735 44.1045 257.509 45.335 258.079C46.5654 258.672 47.8529 259.013 49.1973 259.104V262.112C47.306 262.112 45.4375 261.736 43.5918 260.984C41.7689 260.255 40.1055 259.23 38.6016 257.908C37.0977 256.587 35.89 255.037 34.9785 253.26C34.0898 251.482 33.6455 249.546 33.6455 247.449C33.6455 244.988 34.124 242.858 35.0811 241.058C36.0381 239.257 37.3141 237.776 38.9092 236.614C40.5042 235.475 42.2816 234.62 44.2412 234.051C46.2236 233.504 48.2288 233.23 50.2568 233.23C52.6266 233.23 54.8483 233.561 56.9219 234.222C58.9954 234.882 60.8184 235.862 62.3906 237.161C63.9857 238.46 65.2275 240.066 66.1162 241.98C67.0049 243.917 67.4492 246.15 67.4492 248.68C67.4492 251.528 66.8796 253.955 65.7402 255.96C64.6009 257.965 63.0742 259.594 61.1602 260.848C59.2461 262.124 57.0928 263.058 54.7002 263.65C52.3076 264.243 49.8467 264.539 47.3174 264.539H45.0273C42.4525 264.539 39.832 264.368 37.166 264.026C34.5228 263.707 31.9935 263.081 29.5781 262.146C27.1628 261.235 24.998 259.902 23.084 258.147C21.1927 256.393 19.6888 254.103 18.5723 251.277C17.4785 248.475 16.9316 245.011 16.9316 240.887V240.237H22.2979ZM66.834 297.591V298.138H61.4678V297.591C61.4678 294.241 60.9209 291.438 59.8271 289.183C58.7562 286.927 57.3092 285.138 55.4863 283.816C53.6862 282.495 51.6582 281.538 49.4023 280.945C47.1465 280.376 44.8564 280.091 42.5322 280.091H35.2178C33.0075 280.091 31.0479 280.353 29.3389 280.877C27.6527 281.401 26.2285 282.119 25.0664 283.03C23.9043 283.942 23.027 284.967 22.4346 286.106C21.8421 287.269 21.5459 288.476 21.5459 289.729C21.5459 291.188 21.8193 292.487 22.3662 293.626C22.9359 294.765 23.722 295.722 24.7246 296.497C25.75 297.295 26.9577 297.898 28.3477 298.309C29.7376 298.719 31.2643 298.924 32.9277 298.924C34.4089 298.924 35.833 298.742 37.2002 298.377C38.5902 298.012 39.8206 297.454 40.8916 296.702C41.9854 295.95 42.8398 295.005 43.4551 293.865C44.0931 292.749 44.4121 291.416 44.4121 289.866C44.4121 288.112 43.9792 286.471 43.1133 284.944C42.2702 283.44 41.1536 282.199 39.7637 281.219C38.3965 280.262 36.904 279.715 35.2861 279.578L35.3203 276.229C37.8724 276.548 40.0485 277.14 41.8486 278.006C43.6715 278.895 45.1527 279.988 46.292 281.287C47.4541 282.609 48.2972 284.078 48.8213 285.696C49.3682 287.337 49.6416 289.069 49.6416 290.892C49.6416 293.375 49.1745 295.517 48.2402 297.317C47.306 299.118 46.0527 300.599 44.4805 301.761C42.931 302.923 41.1764 303.777 39.2168 304.324C37.2799 304.894 35.2861 305.179 33.2354 305.179C30.8883 305.179 28.6895 304.848 26.6387 304.188C24.5879 303.527 22.7878 302.535 21.2383 301.214C19.6888 299.915 18.4811 298.309 17.6152 296.395C16.7493 294.48 16.3164 292.259 16.3164 289.729C16.3164 287.041 16.8633 284.694 17.957 282.688C19.0736 280.683 20.5547 279.02 22.4004 277.698C24.2461 276.377 26.2969 275.385 28.5527 274.725C30.8086 274.064 33.0986 273.733 35.4229 273.733H38.3965C41.9056 273.733 45.3464 274.087 48.7188 274.793C52.0911 275.499 55.1445 276.718 57.8789 278.45C60.6133 280.205 62.7894 282.632 64.4072 285.73C66.0251 288.829 66.834 292.783 66.834 297.591ZM33.748 346.331H28.5527V310.374H32.2783L66.7656 332.659V337.82L56.7852 332.283L33.748 317.552V346.331ZM66.7656 339.393H17V333.069H66.7656V339.393ZM66.834 376.341V376.888H61.4678V376.341C61.4678 372.991 60.9209 370.188 59.8271 367.933C58.7562 365.677 57.3092 363.888 55.4863 362.566C53.6862 361.245 51.6582 360.288 49.4023 359.695C47.1465 359.126 44.8564 358.841 42.5322 358.841H35.2178C33.0075 358.841 31.0479 359.103 29.3389 359.627C27.6527 360.151 26.2285 360.869 25.0664 361.78C23.9043 362.692 23.027 363.717 22.4346 364.856C21.8421 366.019 21.5459 367.226 21.5459 368.479C21.5459 369.938 21.8193 371.237 22.3662 372.376C22.9359 373.515 23.722 374.472 24.7246 375.247C25.75 376.045 26.9577 376.648 28.3477 377.059C29.7376 377.469 31.2643 377.674 32.9277 377.674C34.4089 377.674 35.833 377.492 37.2002 377.127C38.5902 376.762 39.8206 376.204 40.8916 375.452C41.9854 374.7 42.8398 373.755 43.4551 372.615C44.0931 371.499 44.4121 370.166 44.4121 368.616C44.4121 366.862 43.9792 365.221 43.1133 363.694C42.2702 362.19 41.1536 360.949 39.7637 359.969C38.3965 359.012 36.904 358.465 35.2861 358.328L35.3203 354.979C37.8724 355.298 40.0485 355.89 41.8486 356.756C43.6715 357.645 45.1527 358.738 46.292 360.037C47.4541 361.359 48.2972 362.828 48.8213 364.446C49.3682 366.087 49.6416 367.819 49.6416 369.642C49.6416 372.125 49.1745 374.267 48.2402 376.067C47.306 377.868 46.0527 379.349 44.4805 380.511C42.931 381.673 41.1764 382.527 39.2168 383.074C37.2799 383.644 35.2861 383.929 33.2354 383.929C30.8883 383.929 28.6895 383.598 26.6387 382.938C24.5879 382.277 22.7878 381.285 21.2383 379.964C19.6888 378.665 18.4811 377.059 17.6152 375.145C16.7493 373.23 16.3164 371.009 16.3164 368.479C16.3164 365.791 16.8633 363.444 17.957 361.438C19.0736 359.433 20.5547 357.77 22.4004 356.448C24.2461 355.127 26.2969 354.135 28.5527 353.475C30.8086 352.814 33.0986 352.483 35.4229 352.483H38.3965C41.9056 352.483 45.3464 352.837 48.7188 353.543C52.0911 354.249 55.1445 355.468 57.8789 357.2C60.6133 358.955 62.7894 361.382 64.4072 364.48C66.0251 367.579 66.834 371.533 66.834 376.341Z" fill="#85392C"/>
<path d="M1.56252 5.11939e-07L4.08652 493.002" stroke="black" stroke-width="2"/>
</svg>
