<svg width="37" height="37" viewBox="0 0 37 37" fill="none" xmlns="http://www.w3.org/2000/svg">
<path d="M18.5 1.47998C9.10888 1.47998 1.48 9.10886 1.48 18.5C1.48 27.8911 9.10888 35.52 18.5 35.52C27.8911 35.52 35.52 27.8911 35.52 18.5C35.52 9.10886 27.8911 1.47998 18.5 1.47998ZM18.5 2.95998C27.0913 2.95998 34.04 9.90871 34.04 18.5C34.04 27.0913 27.0913 34.04 18.5 34.04C16.9285 34.04 15.4125 33.8048 13.9834 33.3722C14.62 32.308 15.4418 30.7866 15.7684 29.5306C15.9623 28.7859 16.7598 25.7482 16.7598 25.7482C17.2781 26.7377 18.7925 27.5751 20.4049 27.5751C25.203 27.5751 28.662 23.1625 28.662 17.679C28.662 12.422 24.3722 8.48975 18.8527 8.48975C11.9857 8.48975 8.3409 13.0986 8.3409 18.117C8.3409 20.4508 9.5822 23.356 11.5697 24.2812C11.8708 24.4214 12.0325 24.3607 12.1016 24.0688C12.1548 23.8473 12.4233 22.7674 12.5439 22.265C12.5824 22.1047 12.5638 21.9662 12.434 21.8083C11.7762 21.0104 11.2489 19.5447 11.2489 18.1777C11.2489 14.6683 13.9057 11.272 18.4321 11.272C22.3404 11.272 25.0776 13.9363 25.0776 17.7455C25.0776 22.0492 22.9045 25.0313 20.0768 25.0313C18.5152 25.0313 17.3459 23.7394 17.721 22.1552C18.1707 20.2643 19.0391 18.2239 19.0391 16.8581C19.0391 15.6367 18.3836 14.6179 17.0258 14.6179C15.4293 14.6179 14.1467 16.2685 14.1467 18.4812C14.1467 19.8892 14.6237 20.8428 14.6237 20.8428C14.6237 20.8428 13.0466 27.5106 12.7578 28.7516C12.4683 29.9917 12.5458 31.6619 12.6653 32.9054C6.97164 30.6008 2.96 25.0263 2.96 18.5C2.96 9.90871 9.90873 2.95998 18.5 2.95998Z" fill="#847B66"/>
</svg>
