<svg width="107" height="107" viewBox="0 0 107 107" fill="none" xmlns="http://www.w3.org/2000/svg">
<path d="M42.5789 45.98C38.432 45.98 35.0584 49.3536 35.0584 53.5003C35.0584 57.647 38.432 61.0206 42.5789 61.0206C46.7258 61.0206 50.0992 57.647 50.0992 53.5003C50.0992 49.3536 46.7258 45.98 42.5789 45.98ZM42.5791 57.745C40.2385 57.745 38.3344 55.8407 38.3344 53.5005C38.3344 51.1601 40.2385 49.256 42.5791 49.256C44.9195 49.256 46.8236 51.1601 46.8236 53.5005C46.8236 55.8409 44.9195 57.745 42.5791 57.745Z" fill="#363022" fill-opacity="0.8"/>
<path d="M73.0862 38.1311C70.9128 35.9947 67.9368 34.7949 64.8919 34.7949C64.0073 34.7949 63.1181 34.8967 62.2489 35.0975C59.2036 35.8012 56.6143 37.6488 54.9583 40.2996C53.2384 43.0527 52.7426 46.5001 53.6074 49.6291C55.0093 54.7028 59.5714 58.2031 64.8742 58.2031C68.8856 58.2031 72.6837 56.0986 74.8078 52.6984C77.6761 48.1068 76.9418 41.9211 73.0862 38.1311ZM64.469 54.9149C64.4516 55.1847 61.446 54.1895 61.181 54.0574C57.9152 52.4319 55.9737 48.7444 56.5744 45.1321C56.9211 43.0463 58.0607 41.1242 59.734 39.83C62.8257 43.705 64.5141 48.5079 64.5141 53.5003C64.5141 53.9715 64.4988 54.444 64.469 54.9149ZM67.7722 54.4129C67.783 54.1084 67.7901 53.8044 67.7901 53.5003C67.7901 48.0027 66.0088 42.7056 62.734 38.3543C62.818 38.332 62.9016 38.309 62.9866 38.2896C67.4808 37.2515 72.0559 40.1138 73.0929 44.6026C74.0377 48.6926 71.7163 52.982 67.7722 54.4129Z" fill="#363022" fill-opacity="0.8"/>
<path d="M66.029 64.9799C63.7965 62.0485 60.4009 60.3672 56.7119 60.3672C53.0559 60.367 49.6695 62.1354 47.4921 64.9239C46.601 66.0647 45.9128 67.3763 45.4909 68.8074C44.4531 72.3288 45.1887 76.2418 47.4098 79.1591C49.6419 82.0903 53.0377 83.7716 56.7278 83.7718C59.3048 83.7718 61.7536 82.9444 63.8092 81.3791C66.2959 79.4855 67.8963 76.7367 68.3157 73.6396C68.7348 70.5418 67.9229 67.4666 66.029 64.9799ZM65.0692 73.1999C64.7674 75.4302 63.6149 77.4092 61.8245 78.7731C60.3442 79.9003 58.5819 80.4961 56.7271 80.4961C54.2122 80.4959 51.8881 79.4105 50.2837 77.5058C51.8189 77.0126 53.3084 76.3746 54.7299 75.5913C55.5219 75.1547 55.8103 74.1585 55.3738 73.3664C54.9372 72.5742 53.941 72.2858 53.1489 72.7223C51.7255 73.5069 50.2258 74.128 48.6752 74.576C48.1857 72.9997 48.177 71.3232 48.6196 69.7621C48.6227 69.7512 48.6259 69.7406 48.6292 69.7295C49.969 65.0572 55.2041 62.4888 59.752 64.2123C60.2843 64.414 60.7952 64.6706 61.274 64.9784C60.3743 66.4403 59.3043 67.7941 58.0822 69.0154C57.4423 69.6549 57.4419 70.6919 58.0816 71.3318C58.7213 71.9717 59.7578 71.9719 60.3977 71.3324C61.6289 70.1021 62.7221 68.7518 63.6704 67.3057C64.8564 69.0325 65.3521 71.1092 65.0692 73.1999Z" fill="#363022" fill-opacity="0.8"/>
<path d="M40.0301 70.5093C40.0295 70.5047 40.0291 70.5001 40.0284 70.4955C39.3685 65.5595 35.5106 61.5489 30.639 60.6074C29.3909 60.366 28.1046 60.3288 26.8451 60.5014C23.8031 60.9182 20.9904 62.5351 19.1288 64.9798C17.2349 67.4665 16.423 70.5419 16.8423 73.6392C17.2617 76.7366 18.8621 79.4854 21.3488 81.3788C23.4042 82.9439 25.8532 83.7714 28.4309 83.7714C32.1199 83.7714 35.5159 82.0902 37.748 79.1585C39.6124 76.7105 40.4431 73.5577 40.0301 70.5093ZM28.4309 80.4956C26.5763 80.4956 24.8138 79.8996 23.3335 78.7725C21.5429 77.4089 20.3904 75.4296 20.0888 73.1993C19.8061 71.1101 20.3012 69.0347 21.4859 67.3085C24.6564 72.1525 29.3759 75.7481 34.8726 77.5073C33.2676 79.411 30.9443 80.4956 28.4309 80.4956ZM36.483 74.5757C31.2384 73.0643 26.7521 69.6468 23.8844 64.9783C24.8882 64.3332 26.02 63.9102 27.2058 63.7353C27.2259 63.7323 27.2459 63.7294 27.266 63.7265C30.5606 63.2713 33.8808 64.836 35.6166 67.6717C36.8749 69.7268 37.198 72.2729 36.483 74.5757Z" fill="#363022" fill-opacity="0.8"/>
<path d="M22.9087 35.0973C16.6694 33.6559 10.3128 37.6323 8.87327 43.8644C7.43817 50.076 11.4413 56.4678 17.6406 57.9C23.879 59.3411 30.2363 55.3652 31.6762 49.1327C33.1123 42.9158 29.1101 36.5301 22.9087 35.0973ZM17.3681 53.4996C17.3681 53.8037 17.375 54.1077 17.386 54.4122C15.6251 53.7736 14.1363 52.5761 13.1284 50.9625C11.9359 49.0537 11.5585 46.7948 12.0651 44.6019C12.9535 40.7564 16.3259 38.0703 20.2658 38.0703C20.9026 38.0703 21.544 38.1439 22.1716 38.2887C22.2564 38.3083 22.3402 38.3315 22.4242 38.3535C19.1494 42.7051 17.3681 48.0025 17.3681 53.4996ZM28.607 47.7385C28.6018 47.7724 28.5968 47.806 28.5914 47.8399C27.9584 51.7243 24.6286 54.7299 20.6888 54.9146C20.6589 54.4438 20.6439 53.9713 20.6439 53.5C20.6439 48.5078 22.3321 43.7047 25.424 39.8299C27.815 41.6792 29.0551 44.7175 28.607 47.7385Z" fill="#363022" fill-opacity="0.8"/>
<path d="M42.5791 18.4585C36.1267 18.4585 30.8772 23.7078 30.8772 30.1604C30.8772 33.413 32.295 36.6013 34.6918 38.7969C36.8262 40.7519 39.6849 41.862 42.5793 41.862C46.0146 41.862 49.3828 40.2777 51.5853 37.6261C53.313 35.5465 54.2808 32.8636 54.2808 30.1602C54.2806 23.7078 49.0313 18.4585 42.5791 18.4585ZM49.7211 34.6257C49.169 35.5056 48.4547 36.2765 47.6273 36.8976C46.1801 37.9839 44.3891 38.5862 42.5791 38.5862C41.024 38.5862 39.4673 38.149 38.1484 37.3231C36.5505 36.3225 35.3069 34.8128 34.6598 33.0387C37.1794 32.0602 39.8374 31.565 42.5789 31.565C45.3206 31.565 47.9782 32.06 50.4977 33.0387C50.5682 33.0661 49.7995 34.501 49.7211 34.6257ZM42.5791 28.2893C39.6765 28.2893 36.8559 28.7748 34.1639 29.7307C34.3882 25.2833 38.077 21.7343 42.5791 21.7343C47.081 21.7343 50.7696 25.2835 50.9941 29.7307C48.3021 28.7748 45.4813 28.2893 42.5791 28.2893Z" fill="#363022" fill-opacity="0.8"/>
<path d="M105.362 70.0543H98.8321C98.0293 70.0543 97.2287 70.0898 96.4528 70.1598C95.5518 70.2413 94.8877 71.0376 94.9688 71.9385C95.0501 72.8394 95.8459 73.5038 96.7474 73.4225C97.4256 73.361 98.1269 73.3301 98.8318 73.3301H103.724V79.8818H98.8318C95.0242 79.8818 92.8411 80.7129 88.1718 85.3829C83.3864 90.168 77.0245 92.8031 70.2578 92.8031H58.9522C62.8583 91.1701 66.5291 88.9577 69.7855 86.2514H70.2578C75.2749 86.2514 79.9913 84.2976 83.539 80.7503C85.6892 78.6001 88.0545 76.4227 90.7795 75.0634C91.5891 74.6597 91.918 73.676 91.514 72.8666C91.1101 72.057 90.127 71.7282 89.317 72.132C86.1728 73.7004 83.5685 76.0877 81.2224 78.4335C79.1046 80.5514 76.4806 81.9768 73.6248 82.6061C80.7727 74.9867 85.1576 64.7465 85.1576 53.4998C85.1576 30.0217 66.0568 10.9209 42.5787 10.9209C33.915 10.9209 25.5755 13.5098 18.4613 18.4084C17.716 18.9214 17.5281 19.9413 18.0408 20.6863C18.5541 21.4311 19.5737 21.6194 20.3187 21.1066C26.8842 16.5863 34.5815 14.1969 42.5787 14.1969C64.2504 14.1969 81.8818 31.8281 81.8818 53.5C81.8818 68.7101 73.1964 81.9294 60.525 88.4604C55.3855 91.095 49.6846 92.5922 43.8662 92.7797C43.4387 92.7934 43.0098 92.8031 42.5789 92.8031C20.9068 92.8031 3.27562 75.1719 3.27562 53.5002C3.27562 42.6694 7.58864 32.58 15.4201 25.0909C16.0738 24.4656 16.097 23.429 15.4719 22.7751C14.8465 22.1212 13.8099 22.0982 13.1562 22.7233C9.04254 26.657 5.80684 31.2856 3.53894 36.4797C1.19058 41.8579 0 47.5847 0 53.5002C0 76.9781 19.101 96.0789 42.5791 96.0789C42.9486 96.0789 43.3168 96.0741 43.6842 96.0647C43.7517 96.0732 43.8198 96.0789 43.8894 96.0789H70.2578C77.8996 96.0789 85.0842 93.103 90.4883 87.6992C94.2655 83.9219 95.6691 83.1576 98.8321 83.1576H105.362C106.267 83.1576 107 82.4243 107 81.5198V71.6923C107 70.7876 106.267 70.0543 105.362 70.0543Z" fill="#363022" fill-opacity="0.8"/>
</svg>
