<svg width="368" height="50" viewBox="0 0 368 50" fill="none" xmlns="http://www.w3.org/2000/svg">
<path d="M25 0L30.6129 17.2746H48.7764L34.0818 27.9508L39.6946 45.2254L25 34.5491L10.3054 45.2254L15.9182 27.9508L1.22359 17.2746H19.3871L25 0Z" fill="#85392C"/>
<path d="M25 0L30.6129 17.2746H48.7764L34.0818 27.9508L39.6946 45.2254L25 34.5491L10.3054 45.2254L15.9182 27.9508L1.22359 17.2746H19.3871L25 0Z" fill="#85392C"/>
<path d="M107 0L112.613 17.2746H130.776L116.082 27.9508L121.695 45.2254L107 34.5491L92.3054 45.2254L97.9182 27.9508L83.2236 17.2746H101.387L107 0Z" fill="#85392C"/>
<path d="M107 0L112.613 17.2746H130.776L116.082 27.9508L121.695 45.2254L107 34.5491L92.3054 45.2254L97.9182 27.9508L83.2236 17.2746H101.387L107 0Z" fill="#85392C"/>
<path d="M189 0L194.613 17.2746H212.776L198.082 27.9508L203.695 45.2254L189 34.5491L174.305 45.2254L179.918 27.9508L165.224 17.2746H183.387L189 0Z" fill="#85392C"/>
<path d="M189 0L194.613 17.2746H212.776L198.082 27.9508L203.695 45.2254L189 34.5491L174.305 45.2254L179.918 27.9508L165.224 17.2746H183.387L189 0Z" fill="#85392C"/>
<path d="M271 0L276.613 17.2746H294.776L280.082 27.9508L285.695 45.2254L271 34.5491L256.305 45.2254L261.918 27.9508L247.224 17.2746H265.387L271 0Z" fill="#85392C"/>
<path d="M271 0L276.613 17.2746H294.776L280.082 27.9508L285.695 45.2254L271 34.5491L256.305 45.2254L261.918 27.9508L247.224 17.2746H265.387L271 0Z" fill="#85392C"/>
<path d="M343 0L348.613 17.2746H366.776L352.082 27.9508L357.695 45.2254L343 34.5491L328.305 45.2254L333.918 27.9508L319.224 17.2746H337.387L343 0Z" fill="#85392C"/>
<path d="M343 0L348.613 17.2746H366.776L352.082 27.9508L357.695 45.2254L343 34.5491L328.305 45.2254L333.918 27.9508L319.224 17.2746H337.387L343 0Z" fill="#85392C"/>
</svg>
