<svg width="37" height="37" viewBox="0 0 37 37" fill="none" xmlns="http://www.w3.org/2000/svg">
<path d="M34.5333 8.55576C33.353 9.07992 32.0852 9.43266 30.7544 9.59176C32.1135 8.77776 33.1557 7.48893 33.6466 5.95219C32.3762 6.70576 30.9678 7.25336 29.468 7.54936C28.268 6.27039 26.5586 5.47119 24.6667 5.47119C21.0333 5.47119 18.0881 8.41763 18.0881 12.0498C18.0881 12.5653 18.1473 13.0685 18.2583 13.5483C12.7909 13.2745 7.9439 10.6549 4.69777 6.67369C4.1329 7.64556 3.80854 8.77529 3.80854 9.98272C3.80854 12.2644 4.9691 14.2784 6.734 15.4575C5.65607 15.423 4.64103 15.127 3.75427 14.6349C3.75427 14.6632 3.75427 14.6891 3.75427 14.7175C3.75427 17.9057 6.02113 20.5647 9.0317 21.1678C8.4804 21.3183 7.89827 21.3985 7.29763 21.3985C6.8746 21.3985 6.46143 21.3565 6.0606 21.2813C6.89803 23.8947 9.3277 25.7978 12.2063 25.8508C9.95547 27.6157 7.1188 28.6677 4.03547 28.6677C3.50514 28.6677 2.98097 28.6369 2.46544 28.5752C5.37733 30.4413 8.83437 31.5303 12.5504 31.5303C24.6519 31.5303 31.2675 21.5058 31.2675 12.812C31.2675 12.5271 31.2613 12.2434 31.249 11.961C32.5353 11.0323 33.6515 9.87419 34.5333 8.55576Z" fill="#847B66"/>
</svg>
