<svg width="176" height="237" viewBox="0 0 176 237" fill="none" xmlns="http://www.w3.org/2000/svg">
<path d="M45.4717 145.496C44.1785 145.7 42.8762 145.445 41.8388 144.786C40.8014 144.127 40.1099 143.115 39.9098 141.963C39.7098 140.812 40.0168 139.61 40.7662 138.611C41.5156 137.613 42.649 136.895 43.9278 136.609C43.5008 136.386 43.048 136.233 42.5791 135.988C40.3245 134.807 38.4846 133.095 37.2424 131.022C36.0001 128.949 35.399 126.588 35.4987 124.174C35.5984 121.759 36.3956 119.375 37.8108 117.26C39.226 115.145 41.21 113.371 43.5651 112.116C42.6633 112.029 41.8005 111.776 41.0287 111.372C40.0304 110.852 39.2178 110.093 38.6739 109.173C38.1299 108.253 37.8742 107.206 37.9327 106.137C37.9912 105.069 38.362 104.019 39.007 103.093C39.6521 102.167 40.5484 101.4 41.6043 100.869C40.8829 100.614 40.1849 100.313 39.5157 99.9669C36.2177 98.261 33.7148 95.5661 32.4118 92.3178C31.1088 89.0695 31.0819 85.4579 32.3354 82.0669C33.5889 78.676 36.0496 75.704 39.3195 73.6315C42.5894 71.5591 46.4773 70.5073 50.3546 70.6464C49.686 69.8028 49.3154 68.7874 49.2882 67.7246C49.2609 66.6617 49.5782 65.5977 50.2012 64.663C50.8242 63.7282 51.7257 62.9633 52.7954 62.462C53.865 61.9607 55.0562 61.7448 56.223 61.8408C54.9408 59.5059 54.5592 56.8144 55.1358 54.1737C55.7124 51.5331 57.2158 49.0869 59.4186 47.2055C61.6214 45.3241 64.4037 44.1098 67.3443 43.7464C70.285 43.383 73.2239 43.8903 75.7164 45.1915C76.2883 45.4968 76.8319 45.8414 77.3426 46.2226C77.2285 45.3749 77.3853 44.502 77.7946 43.7055C78.2039 42.909 78.8489 42.2216 79.6547 41.7234C80.4604 41.2252 81.3937 40.9366 82.3459 40.8911C83.2982 40.8457 84.2303 41.0453 85.0337 41.4668C85.0337 41.4668 85.0337 41.4668 85.0839 41.4931C85.1614 39.5778 85.8028 37.6878 86.9419 36.0183C88.5069 33.7201 90.908 31.9655 93.7029 31.0779C96.4978 30.1903 99.4983 30.2294 102.152 31.1879C102.446 29.8934 103.143 28.6828 104.16 27.7016C105.177 26.7204 106.47 26.0104 107.884 25.6569C109.298 25.3035 110.772 25.3216 112.129 25.7091C113.487 26.0967 114.67 26.8371 115.536 27.8415C118.852 25.5113 122.9 24.2554 126.984 24.2896C131.069 24.3239 134.933 25.6462 137.914 28.0291C140.895 30.4121 142.806 33.7068 143.318 37.3466C143.831 40.9865 142.912 44.7441 140.72 47.9732L142.805 116.66L69.8064 150.774C68.2665 153.029 65.9828 154.811 63.3003 155.848C60.6178 156.886 57.6822 157.124 54.9369 156.526C52.1915 155.928 49.7856 154.526 48.0824 152.533C46.3793 150.54 45.4714 148.063 45.496 145.477L45.4717 145.496ZM48.6653 137.688C48.6288 137.684 48.592 137.683 48.555 137.683C48.5775 137.7 48.6029 137.713 48.6304 137.723L48.6653 137.688Z" fill="#F5F5F5"/>
<path d="M87.0516 36.3618C88.6147 34.066 91.0128 32.3132 93.8043 31.4265C96.5957 30.5398 99.5924 30.5788 102.242 31.5364C102.536 30.2432 103.233 29.0338 104.249 28.0536C105.264 27.0734 106.556 26.3641 107.968 26.011C109.38 25.6579 110.852 25.676 112.208 26.0632C113.563 26.4503 114.745 27.19 115.61 28.1933C118.922 25.8656 122.965 24.6109 127.044 24.6451C131.123 24.6793 134.984 26.0003 137.961 28.3808C140.938 30.7613 142.847 34.0527 143.358 37.6888C143.87 41.325 142.952 45.0788 140.763 48.3046L142.845 116.922L74.9336 148.668L68.9586 147.268C82.9415 145.423 81.6008 132.476 81.6008 132.476C81.6008 132.476 86.8599 134.296 89.7216 130.667C90.5418 129.675 91.0242 128.498 91.1056 127.291C91.1869 126.084 90.8635 124.903 90.1776 123.904C92.6518 124.532 95.3181 124.468 97.8356 123.72C100.353 122.971 102.608 121.572 104.311 119.701C110.785 113.089 105.045 104.249 105.045 104.249C105.045 104.249 109.89 104.91 111.467 100.502C113.044 96.0942 109.815 96.2583 109.815 96.2583C109.815 96.2583 113.372 95.1433 113.778 90.2395C114.184 85.3357 108.037 81.7693 108.037 81.7693C110.235 80.2169 111.927 78.1492 112.911 75.8129C113.894 73.4766 114.129 70.9704 113.585 68.5932C111.739 60.2124 100.948 60.8468 100.948 60.8468C108.255 53.5268 100.83 50.0549 100.83 50.0549C106.952 37.6871 94.3298 32.2048 87.0516 36.3618Z" fill="#F0F0F0"/>
<path d="M119.817 121.771L234.475 179.772L220.093 187.329L103.024 130.599L119.817 121.771Z" fill="#FAFAFA"/>
<path d="M103.425 130.055L220.442 186.73L206.127 194.257L86.5913 138.894L103.425 130.055Z" fill="#7D7A7D"/>
<path d="M131.68 115.87C133.001 115.109 134.105 114.063 134.887 112.831L247.311 172.118C246.529 173.349 245.425 174.395 244.104 175.156L234.149 180.393L119.444 122.34L131.68 115.87Z" fill="#7D7A7D"/>
<path d="M192.557 200.564L182.861 205.647C181.451 206.297 179.922 206.675 178.375 206.756C176.827 206.836 175.297 206.617 173.885 206.114L53.5755 155.57L70.4905 146.69L192.557 200.564Z" fill="#7D7A7D"/>
<path d="M86.9862 138.356L206.469 193.667L192.224 201.144L70.1024 147.221L86.9862 138.356Z" fill="#FAFAFA"/>
<path d="M136.1 97.4019L248.337 158.995L249.015 144.215L136.897 80.1416L136.1 97.4019Z" fill="#7D7A7D"/>
<path d="M136.482 80.6599L248.55 144.671L249.235 129.964L137.28 63.3625L136.482 80.6599Z" fill="#E6E6E6"/>
<path d="M135.961 109.446C135.831 110.836 135.316 112.192 134.465 113.388L246.889 172.674C247.739 171.479 248.254 170.123 248.385 168.733L248.853 158.504L136.57 96.856L135.961 109.446Z" fill="#E6E6E6"/>
<path d="M248.984 116.198L249.437 106.25C249.416 104.846 249.067 103.478 248.411 102.237C247.755 100.997 246.808 99.9129 245.633 99.0569L138.054 29.6602L137.245 47.0281L248.984 116.198Z" fill="#E6E6E6"/>
<path d="M136.865 63.8658L248.77 130.405L249.443 115.781L137.659 46.5391L136.865 63.8658Z" fill="#7D7A7D"/>
<path opacity="0.1" d="M136.1 97.4019L248.337 158.995L249.015 144.215L136.897 80.1416L136.1 97.4019Z" fill="black"/>
<path opacity="0.1" d="M136.865 63.8658L248.77 130.405L249.443 115.781L137.659 46.5391L136.865 63.8658Z" fill="black"/>
<path d="M109.856 96.395C111.196 96.2533 112.498 95.8247 113.651 95.145C114.804 94.4653 115.774 93.5544 116.482 92.4886C117.189 91.4228 117.612 90.2331 117.716 89.0194C117.819 87.8056 117.6 86.603 117.077 85.5125C116.554 84.422 115.742 83.4753 114.709 82.7516C113.676 82.028 112.452 81.5487 111.14 81.3537C109.828 81.1587 108.466 81.2538 107.168 81.6309C105.87 82.0081 104.674 82.6564 103.68 83.5215C105.226 83.3611 106.769 83.588 108.136 84.177C109.504 84.766 110.644 85.6943 111.431 86.8596C112.218 88.0249 112.621 89.382 112.596 90.7813C112.571 92.1805 112.119 93.5676 111.289 94.7896C110.892 95.3777 110.409 95.9179 109.856 96.395Z" fill="#E0E0E0"/>
<path d="M105.397 104.316C106.078 104.774 106.879 105.071 107.734 105.183C108.588 105.295 109.471 105.218 110.309 104.959C111.147 104.7 111.915 104.266 112.548 103.694C113.181 103.122 113.661 102.428 113.948 101.671C114.235 100.914 114.321 100.116 114.197 99.3429C114.074 98.5702 113.745 97.8458 113.239 97.2306C112.733 96.6153 112.064 96.1271 111.288 95.8069C110.512 95.4868 109.652 95.344 108.781 95.3906C109.681 95.9887 110.331 96.8416 110.636 97.8255C111.016 99.0648 110.828 100.417 110.115 101.586C109.401 102.756 108.219 103.647 106.827 104.067C106.361 104.203 105.88 104.287 105.397 104.316Z" fill="#E0E0E0"/>
<path d="M88.5105 60.3335C89.0622 61.4063 89.8982 62.3295 90.9484 63.0257C91.9985 63.7219 93.2322 64.1707 94.5459 64.3345C95.8596 64.4984 97.2151 64.3724 98.4986 63.9673C99.782 63.5621 100.956 62.8896 101.922 62.0061C102.889 61.1226 103.619 60.0539 104.052 58.8896C104.484 57.7254 104.607 56.4995 104.41 55.3148C104.213 54.1302 103.701 53.0213 102.917 52.0812C102.134 51.1411 101.102 50.3972 99.9077 49.9119C100.622 51.3003 100.829 52.8788 100.5 54.4297C100.171 55.9806 99.3234 57.4275 98.073 58.5709C96.8225 59.7143 95.2312 60.4979 93.5185 60.8136C91.8058 61.1293 90.0561 60.9615 88.5105 60.3335Z" fill="#E0E0E0"/>
<path d="M102.114 53.8578C102.549 54.5169 103.158 55.0633 103.891 55.4511C104.624 55.8388 105.459 56.0568 106.325 56.0865C107.192 56.1163 108.066 55.957 108.873 55.6221C109.68 55.2872 110.397 54.7864 110.964 54.1617C111.53 53.5369 111.93 52.8065 112.13 52.0317C112.33 51.2569 112.324 50.4602 112.112 49.7085C111.9 48.9568 111.489 48.272 110.913 47.7115C110.337 47.151 109.612 46.7311 108.801 46.4871C109.381 47.3536 109.626 48.3816 109.499 49.4187C109.424 50.0647 109.21 50.6979 108.869 51.2823C108.527 51.8668 108.065 52.3909 107.509 52.8247C106.953 53.2585 106.313 53.5936 105.627 53.8108C104.941 54.0279 104.222 54.123 103.511 54.0904C103.033 54.0675 102.563 53.9894 102.114 53.8578Z" fill="#E0E0E0"/>
<path d="M67.5412 126.692C68.6266 127.349 69.8851 127.751 71.211 127.866C72.537 127.981 73.8916 127.804 75.1611 127.352C76.4306 126.899 77.5779 126.182 78.5067 125.263C79.4355 124.344 80.1186 123.249 80.4986 122.069C80.8786 120.89 80.9444 119.66 80.6905 118.484C80.4367 117.309 79.8705 116.221 79.0396 115.312C78.2087 114.404 77.1374 113.701 75.9156 113.263C74.6938 112.825 73.3572 112.664 72.0181 112.795C73.2686 113.549 74.2448 114.613 74.8387 115.869C75.4326 117.125 75.6212 118.524 75.3836 119.912C75.1459 121.3 74.4913 122.623 73.4921 123.734C72.4929 124.845 71.188 125.702 69.7216 126.209C69.0149 126.45 68.2824 126.612 67.5412 126.692Z" fill="#E0E0E0"/>
<path d="M59.4551 131.857C60.1355 132.315 60.9367 132.613 61.7914 132.725C62.6461 132.837 63.5294 132.76 64.3671 132.501C65.2048 132.242 65.9725 131.808 66.6057 131.236C67.2389 130.664 67.7192 129.97 68.0062 129.213C68.2933 128.456 68.3786 127.657 68.2552 126.884C68.1318 126.112 67.8032 125.387 67.2969 124.772C66.7906 124.157 66.1216 123.669 65.3458 123.348C64.57 123.028 63.7102 122.886 62.8386 122.932C63.7582 123.533 64.4219 124.397 64.7306 125.397C65.1102 126.636 64.9227 127.988 64.2091 129.158C63.4954 130.327 62.3136 131.219 60.9218 131.638C60.4421 131.768 59.949 131.842 59.4551 131.857Z" fill="#E0E0E0"/>
<path d="M63.8563 109.334C63.7674 110.122 63.888 110.908 64.2081 111.626C64.5282 112.344 65.0384 112.972 65.696 113.458C66.3536 113.944 67.1395 114.275 67.9878 114.421C68.8361 114.567 69.7221 114.526 70.5717 114.299C71.4212 114.073 72.2095 113.669 72.8706 113.121C73.5316 112.572 74.0461 111.896 74.371 111.148C74.6959 110.4 74.8218 109.602 74.738 108.822C74.6543 108.041 74.3633 107.301 73.8896 106.662C73.785 107.571 73.4054 108.451 72.7928 109.204C72.1801 109.956 71.3583 110.552 70.4179 110.926C69.4776 111.3 68.4553 111.437 67.4641 111.322C66.4729 111.207 65.5513 110.845 64.801 110.275C64.4377 110.004 64.1199 109.687 63.8563 109.334Z" fill="#E0E0E0"/>
</svg>
