<svg width="185" height="229" viewBox="0 0 185 229" fill="none" xmlns="http://www.w3.org/2000/svg">
<path d="M137.797 147.773C139.067 148.063 140.384 147.9 141.471 147.318C142.557 146.737 143.329 145.782 143.623 144.655C143.916 143.529 143.71 142.318 143.046 141.278C142.382 140.238 141.313 139.45 140.064 139.079C140.508 138.887 140.971 138.768 141.458 138.557C143.798 137.542 145.77 135.972 147.177 134.005C148.584 132.037 149.376 129.74 149.476 127.343C149.575 124.945 148.978 122.531 147.743 120.34C146.509 118.148 144.68 116.257 142.44 114.853C143.344 114.828 144.224 114.636 145.025 114.29C146.061 113.843 146.933 113.147 147.55 112.273C148.167 111.4 148.507 110.38 148.537 109.318C148.566 108.257 148.284 107.191 147.718 106.231C147.152 105.27 146.323 104.449 145.316 103.851C146.055 103.648 146.774 103.397 147.469 103.101C150.891 101.637 153.604 99.1398 155.168 96.0127C156.732 92.8856 157.056 89.3114 156.087 85.8682C155.118 82.425 152.914 79.3141 149.83 77.0385C146.747 74.7629 142.964 73.4557 139.094 73.3283C139.828 72.5388 140.281 71.5587 140.395 70.5082C140.51 69.4578 140.282 68.3826 139.738 67.4144C139.195 66.4463 138.361 65.6273 137.338 65.0578C136.315 64.4883 135.147 64.1931 133.978 64.2084C135.446 61.9842 136.047 59.3454 135.69 56.6913C135.334 54.0373 134.039 51.5125 132.001 49.499C129.964 47.4855 127.295 46.093 124.398 45.5321C121.501 44.9712 118.535 45.2726 115.947 46.3905C115.353 46.6537 114.784 46.9577 114.244 47.3002C114.427 46.4686 114.343 45.5936 114.001 44.777C113.66 43.9604 113.074 43.2357 112.313 42.6873C111.552 42.1389 110.647 41.7893 109.703 41.6792C108.759 41.5691 107.815 41.7031 106.981 42.0654C106.981 42.0654 106.981 42.0654 106.929 42.088C107.01 40.1863 106.527 38.2711 105.53 36.5402C104.162 34.1577 101.917 32.2563 99.2081 31.1863C96.4997 30.1164 93.5104 29.9499 90.791 30.7175C90.6047 29.4157 90.0101 28.1693 89.0788 27.1283C88.1474 26.0872 86.919 25.2958 85.5412 24.8492C84.1634 24.4025 82.6948 24.3197 81.312 24.6106C79.9291 24.9015 78.6909 25.5537 77.7461 26.4889C74.6377 23.955 70.7123 22.4347 66.6449 22.1893C62.5776 21.944 58.6225 22.9889 55.4598 25.1445C52.2971 27.3001 50.1244 30.4316 49.3154 34.0005C48.5064 37.5695 49.1116 41.3528 51.027 44.6998L43.3031 112.566L113.145 151.335C114.492 153.673 116.618 155.593 119.202 156.804C121.787 158.015 124.689 158.451 127.47 158.047C130.251 157.642 132.761 156.419 134.62 154.562C136.479 152.705 137.586 150.315 137.774 147.753L137.797 147.773ZM135.261 139.824C135.297 139.823 135.334 139.824 135.371 139.827C135.347 139.842 135.321 139.853 135.293 139.86L135.261 139.824Z" fill="#F5F5F5"/>
<path d="M105.389 36.9349C104.023 34.5551 101.781 32.656 99.0765 31.5873C96.3722 30.5186 93.3876 30.3523 90.6724 31.1191C90.4863 29.8187 89.8926 28.5739 88.9628 27.534C88.0329 26.4942 86.8064 25.7038 85.4307 25.2577C84.055 24.8115 82.5887 24.7288 81.208 25.0193C79.8273 25.3099 78.591 25.9613 77.6477 26.8954C74.544 24.3645 70.6247 22.846 66.5636 22.6009C62.5026 22.3559 58.5536 23.3996 55.3958 25.5526C52.238 27.7057 50.0687 30.8335 49.261 34.3982C48.4532 37.9629 49.0575 41.7417 50.9698 45.0848L43.2578 112.871L108.213 148.943L114.272 147.965C100.513 145.182 102.911 132.457 102.911 132.457C102.911 132.457 97.5289 133.899 94.9802 130.111C94.2458 129.073 93.8625 127.875 93.8808 126.675C93.899 125.474 94.3179 124.327 95.0825 123.384C92.5693 123.838 89.9219 123.592 87.4787 122.679C85.0355 121.765 82.9076 120.226 81.367 118.257C75.4694 111.269 81.9063 102.91 81.9063 102.91C81.9063 102.91 77.0317 103.233 75.8254 98.7616C74.6192 94.2903 77.8179 94.6736 77.8179 94.6736C77.8179 94.6736 74.3705 93.3265 74.3697 88.4441C74.3689 83.5618 80.778 80.4516 80.778 80.4516C78.7188 78.7644 77.2056 76.6018 76.4189 74.2217C75.6322 71.8416 75.6052 69.3445 76.3411 67.0283C78.8666 58.8578 89.5506 60.2238 89.5506 60.2238C82.8831 52.4777 90.5549 49.5482 90.5549 49.5482C85.4813 36.886 98.4897 32.3219 105.389 36.9349Z" fill="#F0F0F0"/>
<path d="M65.5302 119.394L-53.7218 169.332L-39.9788 177.875L81.5769 129.374L65.5302 119.394Z" fill="#FAFAFA"/>
<path d="M81.1282 128.681L-40.3687 177.116L-26.6917 185.621L97.2129 138.67L81.1282 128.681Z" fill="#7D7A7D"/>
<path d="M54.2603 112.8C53.0031 111.948 51.9861 110.827 51.306 109.543L-65.8217 160.934C-65.1415 162.218 -64.1245 163.339 -62.8673 164.191L-53.3547 170.113L65.9498 120.113L54.2603 112.8Z" fill="#7D7A7D"/>
<path d="M-13.8366 192.594L-4.5718 198.335C-3.21778 199.081 -1.72201 199.564 -0.183508 199.752C1.355 199.939 2.90114 199.827 4.35262 199.423L128.628 157.358L112.467 147.331L-13.8366 192.594Z" fill="#7D7A7D"/>
<path d="M96.7703 137.988L-27.0736 184.877L-13.4633 193.324L112.902 148.002L96.7703 137.988Z" fill="#FAFAFA"/>
<path d="M51.5513 94.2973L-65.5769 147.988L-65.043 133.186L52.1699 77.0107L51.5513 94.2973Z" fill="#7D7A7D"/>
<path d="M52.6335 77.6676L-64.5224 133.767L-64.0006 119.043L53.2547 60.3508L52.6335 77.6676Z" fill="#E6E6E6"/>
<path d="M50.6114 106.219C50.6279 107.616 51.0309 109.007 51.7826 110.259L-65.3453 161.651C-66.0966 160.398 -66.4996 159.008 -66.5165 157.611L-66.1456 147.362L51.0344 93.603L50.6114 106.219Z" fill="#E6E6E6"/>
<path d="M-62.4349 105.495L-62.0712 95.5438C-61.9357 94.1447 -61.4742 92.8049 -60.7176 91.6136C-59.9609 90.4222 -58.9264 89.4067 -57.6829 88.6345L55.4279 26.8877L54.8105 44.2627L-62.4349 105.495Z" fill="#E6E6E6"/>
<path d="M53.7184 60.9862L-63.4798 119.601L-62.9517 104.966L54.3469 43.647L53.7184 60.9862Z" fill="#7D7A7D"/>
<path opacity="0.1" d="M51.5513 94.2973L-65.5769 147.988L-65.043 133.186L52.1699 77.0107L51.5513 94.2973Z" fill="black"/>
<path opacity="0.1" d="M53.7184 60.9862L-63.4798 119.601L-62.9517 104.966L54.3469 43.647L53.7184 60.9862Z" fill="black"/>
<path d="M77.7679 94.8279C76.4435 94.5958 75.1821 94.082 74.0894 93.3295C72.9967 92.577 72.1046 91.6078 71.4876 90.5032C70.8707 89.3985 70.5471 88.1906 70.5438 86.9806C70.5405 85.7706 70.8578 84.5938 71.4689 83.5488C72.08 82.5039 72.9671 81.6212 74.0561 80.9747C75.145 80.3283 76.4039 79.9369 77.7273 79.8334C79.0508 79.7299 80.4001 79.9174 81.6624 80.38C82.9246 80.8426 84.0629 81.5669 84.9818 82.4922C83.4539 82.2275 81.8986 82.3468 80.4872 82.8369C79.0759 83.3271 77.8633 84.1691 76.9833 85.2701C76.1032 86.3712 75.5898 87.6885 75.4995 89.077C75.4093 90.4654 75.7458 91.871 76.472 93.1389C76.8195 93.7489 77.2556 94.3173 77.7679 94.8279Z" fill="#E0E0E0"/>
<path d="M81.4844 102.987C80.7694 103.394 79.9475 103.634 79.0875 103.686C78.2276 103.739 77.3547 103.602 76.5422 103.289C75.7297 102.975 75.0012 102.493 74.418 101.883C73.8347 101.273 73.4138 100.553 73.1904 99.7836C72.967 99.0142 72.9477 98.2178 73.1341 97.4611C73.3205 96.7044 73.7072 96.0095 74.2618 95.4349C74.8163 94.8602 75.5225 94.4225 76.321 94.1585C77.1195 93.8945 77.9871 93.812 78.8509 93.9177C77.9054 94.4484 77.1883 95.2486 76.8037 96.2019C76.3239 97.4033 76.3993 98.7549 77.0134 99.9617C77.6275 101.169 78.7305 102.132 80.0814 102.643C80.5344 102.81 81.0058 102.926 81.4844 102.987Z" fill="#E0E0E0"/>
<path d="M102.155 60.4769C101.518 61.5015 100.61 62.3585 99.507 62.9761C98.4044 63.5937 97.1395 63.9538 95.8183 64.0262C94.4972 64.0986 93.1583 63.8812 91.9141 63.3923C90.6698 62.9033 89.5565 62.1571 88.6674 61.2161C87.7783 60.2752 87.1395 59.1669 86.8044 57.9844C86.4694 56.8019 86.4479 55.5796 86.7418 54.42C87.0357 53.2603 87.6364 52.1973 88.4936 51.3199C89.3507 50.4425 90.4392 49.7765 91.6679 49.3776C90.8429 50.7036 90.507 52.2526 90.7065 53.8108C90.906 55.369 91.6311 56.8598 92.7817 58.0776C93.9323 59.2954 95.4518 60.1801 97.1306 60.6098C98.8095 61.0396 100.565 60.9931 102.155 60.4769Z" fill="#E0E0E0"/>
<path d="M89.1778 53.1687C88.6907 53.7915 88.0392 54.2908 87.278 54.6247C86.5168 54.9585 85.668 55.1172 84.8029 55.0874C83.9377 55.0576 83.0814 54.8402 82.3058 54.4534C81.5302 54.0666 80.8579 53.5217 80.3452 52.8643C79.8325 52.207 79.4945 51.4565 79.3594 50.6756C79.2243 49.8948 79.296 49.1064 79.5687 48.3766C79.8414 47.6468 80.307 46.9968 80.9264 46.4813C81.5459 45.9657 82.3012 45.5995 83.129 45.4134C82.4806 46.2317 82.1523 47.2328 82.1927 48.2683C82.2141 48.913 82.3753 49.5547 82.6671 50.1567C82.9589 50.7587 83.3756 51.3092 83.8934 51.7768C84.4111 52.2444 85.0199 52.6199 85.6848 52.8818C86.3497 53.1438 87.0577 53.287 87.7683 53.3034C88.2459 53.3134 88.7196 53.2682 89.1778 53.1687Z" fill="#E0E0E0"/>
<path d="M117.217 127.613C116.083 128.189 114.797 128.502 113.467 128.525C112.138 128.548 110.804 128.28 109.578 127.745C108.351 127.21 107.268 126.422 106.419 125.448C105.57 124.474 104.98 123.343 104.699 122.149C104.418 120.955 104.453 119.733 104.803 118.586C105.152 117.439 105.805 116.4 106.707 115.557C107.609 114.714 108.733 114.091 109.986 113.741C111.238 113.391 112.582 113.324 113.904 113.545C112.597 114.206 111.538 115.193 110.843 116.396C110.149 117.599 109.846 118.972 109.968 120.363C110.091 121.754 110.633 123.108 111.537 124.277C112.44 125.446 113.668 126.383 115.086 126.985C115.77 127.273 116.486 127.483 117.217 127.613Z" fill="#E0E0E0"/>
<path d="M124.801 133.249C124.086 133.656 123.264 133.896 122.404 133.948C121.544 134.001 120.671 133.864 119.859 133.55C119.046 133.236 118.318 132.754 117.735 132.144C117.151 131.535 116.73 130.815 116.507 130.045C116.284 129.276 116.264 128.479 116.451 127.723C116.637 126.966 117.024 126.271 117.578 125.697C118.133 125.122 118.839 124.684 119.638 124.42C120.436 124.156 121.304 124.074 122.168 124.179C121.203 124.712 120.471 125.522 120.081 126.491C119.602 127.692 119.677 129.044 120.291 130.25C120.905 131.457 122.008 132.421 123.359 132.931C123.826 133.093 124.311 133.2 124.801 133.249Z" fill="#E0E0E0"/>
<path d="M122.38 110.64C122.404 111.428 122.219 112.198 121.841 112.887C121.463 113.576 120.903 114.164 120.208 114.601C119.513 115.038 118.703 115.311 117.846 115.398C116.989 115.485 116.109 115.383 115.282 115.101C114.454 114.819 113.702 114.364 113.089 113.776C112.476 113.187 112.019 112.482 111.757 111.719C111.495 110.955 111.435 110.156 111.583 109.389C111.73 108.621 112.081 107.907 112.606 107.307C112.635 108.215 112.941 109.113 113.489 109.9C114.037 110.688 114.807 111.334 115.713 111.769C116.619 112.204 117.626 112.409 118.623 112.363C119.619 112.317 120.567 112.021 121.362 111.508C121.746 111.264 122.088 110.972 122.38 110.64Z" fill="#E0E0E0"/>
</svg>
