<svg width="95" height="483" viewBox="0 0 95 483" fill="none" xmlns="http://www.w3.org/2000/svg">
<path opacity="0.5" d="M48.252 342.544H53.4473L53.4473 378.501H49.7217L15.2344 356.216V351.055L25.2148 356.592L48.252 371.323V342.544ZM15.2344 349.482H65V355.806H15.2344V349.482ZM59.8047 304.194H65L65 336.768H60.4541L42.3047 320.464C40.0716 318.459 38.1803 316.909 36.6309 315.815C35.0586 314.699 33.6572 313.924 32.4268 313.491C31.1735 313.035 29.8975 312.808 28.5986 312.808C26.958 312.808 25.4769 313.149 24.1553 313.833C22.8109 314.494 21.7399 315.474 20.9424 316.772C20.1449 318.071 19.7461 319.644 19.7461 321.489C19.7461 323.7 20.179 325.545 21.0449 327.026C21.888 328.485 23.0729 329.578 24.5996 330.308C26.1263 331.037 27.8809 331.401 29.8633 331.401V337.725C27.0605 337.725 24.4971 337.109 22.1729 335.879C19.8486 334.648 18.0029 332.826 16.6357 330.41C15.2458 327.995 14.5508 325.021 14.5508 321.489C14.5508 318.345 15.109 315.656 16.2256 313.423C17.3193 311.19 18.8688 309.481 20.874 308.296C22.8564 307.088 25.1807 306.484 27.8467 306.484C29.305 306.484 30.7861 306.735 32.29 307.236C33.7712 307.715 35.2523 308.387 36.7334 309.253C38.2145 310.096 39.6729 311.087 41.1084 312.227C42.5439 313.343 43.9567 314.539 45.3467 315.815L59.8047 329.146V304.194ZM15.166 273.159V272.612H20.5322V273.159C20.5322 276.509 21.0791 279.312 22.1729 281.567C23.2438 283.823 24.6908 285.612 26.5137 286.934C28.3138 288.255 30.3418 289.212 32.5977 289.805C34.8535 290.374 37.1436 290.659 39.4678 290.659H46.7822C48.9925 290.659 50.9521 290.397 52.6611 289.873C54.3473 289.349 55.7715 288.631 56.9336 287.72C58.0957 286.808 58.973 285.783 59.5654 284.644C60.1579 283.481 60.4541 282.274 60.4541 281.021C60.4541 279.562 60.1807 278.263 59.6338 277.124C59.0641 275.985 58.278 275.028 57.2754 274.253C56.25 273.455 55.0423 272.852 53.6523 272.441C52.2624 272.031 50.7357 271.826 49.0723 271.826C47.5911 271.826 46.167 272.008 44.7998 272.373C43.4098 272.738 42.1794 273.296 41.1084 274.048C40.0146 274.8 39.1602 275.745 38.5449 276.885C37.9069 278.001 37.5879 279.334 37.5879 280.884C37.5879 282.638 38.0208 284.279 38.8867 285.806C39.7298 287.31 40.8464 288.551 42.2363 289.531C43.6035 290.488 45.096 291.035 46.7139 291.172L46.6797 294.521C44.1276 294.202 41.9515 293.61 40.1514 292.744C38.3285 291.855 36.8473 290.762 35.708 289.463C34.5459 288.141 33.7028 286.672 33.1787 285.054C32.6318 283.413 32.3584 281.681 32.3584 279.858C32.3584 277.375 32.8255 275.233 33.7598 273.433C34.694 271.632 35.9473 270.151 37.5195 268.989C39.069 267.827 40.8236 266.973 42.7832 266.426C44.7201 265.856 46.7139 265.571 48.7646 265.571C51.1117 265.571 53.3105 265.902 55.3613 266.562C57.4121 267.223 59.2122 268.215 60.7617 269.536C62.3112 270.835 63.5189 272.441 64.3848 274.355C65.2507 276.27 65.6836 278.491 65.6836 281.021C65.6836 283.709 65.1367 286.056 64.043 288.062C62.9264 290.067 61.4453 291.73 59.5996 293.052C57.7539 294.373 55.7031 295.365 53.4473 296.025C51.1914 296.686 48.9014 297.017 46.5771 297.017H43.6035C40.0944 297.017 36.6536 296.663 33.2813 295.957C29.9089 295.251 26.8555 294.032 24.1211 292.3C21.3867 290.545 19.2106 288.118 17.5928 285.02C15.9749 281.921 15.166 277.967 15.166 273.159ZM41.3135 250.054L40.0146 255.112L15.2344 252.617L15.2344 227.085H21.0791L21.0791 247.251L34.6143 248.755C34.0902 247.843 33.6003 246.693 33.1445 245.303C32.6888 243.89 32.4609 242.272 32.4609 240.449C32.4609 238.148 32.8597 236.086 33.6572 234.263C34.432 232.44 35.5485 230.89 37.0068 229.614C38.4652 228.315 40.2197 227.324 42.2705 226.641C44.3213 225.957 46.6113 225.615 49.1406 225.615C51.5332 225.615 53.7321 225.946 55.7373 226.606C57.7425 227.244 59.4971 228.213 61.001 229.512C62.4821 230.811 63.6328 232.451 64.4531 234.434C65.2734 236.393 65.6836 238.706 65.6836 241.372C65.6836 243.377 65.4102 245.28 64.8633 247.08C64.2936 248.857 63.4391 250.452 62.2998 251.865C61.1377 253.255 59.7021 254.395 57.9932 255.283C56.2614 256.149 54.2334 256.696 51.9092 256.924V250.908C53.7777 250.635 55.3499 250.088 56.626 249.268C57.902 248.447 58.8704 247.376 59.5313 246.055C60.1693 244.71 60.4883 243.149 60.4883 241.372C60.4883 239.868 60.2262 238.535 59.7021 237.373C59.1781 236.211 58.4261 235.231 57.4463 234.434C56.4665 233.636 55.2816 233.032 53.8916 232.622C52.5016 232.189 50.9408 231.973 49.209 231.973C47.6367 231.973 46.1784 232.189 44.834 232.622C43.4896 233.055 42.3161 233.704 41.3135 234.57C40.3109 235.413 39.5361 236.45 38.9893 237.681C38.4196 238.911 38.1348 240.324 38.1348 241.919C38.1348 244.038 38.4196 245.645 38.9893 246.738C39.5589 247.809 40.3337 248.914 41.3135 250.054ZM15.166 194.409V193.862H20.5322V194.409C20.5322 197.759 21.0791 200.562 22.1729 202.817C23.2438 205.073 24.6908 206.862 26.5137 208.184C28.3138 209.505 30.3418 210.462 32.5977 211.055C34.8535 211.624 37.1436 211.909 39.4678 211.909H46.7822C48.9925 211.909 50.9521 211.647 52.6611 211.123C54.3473 210.599 55.7715 209.881 56.9336 208.97C58.0957 208.058 58.973 207.033 59.5654 205.894C60.1579 204.731 60.4541 203.524 60.4541 202.271C60.4541 200.812 60.1807 199.513 59.6338 198.374C59.0641 197.235 58.278 196.278 57.2754 195.503C56.25 194.705 55.0423 194.102 53.6523 193.691C52.2624 193.281 50.7357 193.076 49.0723 193.076C47.5911 193.076 46.167 193.258 44.7998 193.623C43.4098 193.988 42.1794 194.546 41.1084 195.298C40.0146 196.05 39.1602 196.995 38.5449 198.135C37.9069 199.251 37.5879 200.584 37.5879 202.134C37.5879 203.888 38.0208 205.529 38.8867 207.056C39.7298 208.56 40.8464 209.801 42.2363 210.781C43.6035 211.738 45.096 212.285 46.7139 212.422L46.6797 215.771C44.1276 215.452 41.9515 214.86 40.1514 213.994C38.3285 213.105 36.8473 212.012 35.708 210.713C34.5459 209.391 33.7028 207.922 33.1787 206.304C32.6318 204.663 32.3584 202.931 32.3584 201.108C32.3584 198.625 32.8255 196.483 33.7598 194.683C34.694 192.882 35.9473 191.401 37.5195 190.239C39.069 189.077 40.8236 188.223 42.7832 187.676C44.7201 187.106 46.7139 186.821 48.7646 186.821C51.1117 186.821 53.3105 187.152 55.3613 187.812C57.4121 188.473 59.2122 189.465 60.7617 190.786C62.3112 192.085 63.5189 193.691 64.3848 195.605C65.2507 197.52 65.6836 199.741 65.6836 202.271C65.6836 204.959 65.1367 207.306 64.043 209.312C62.9264 211.317 61.4453 212.98 59.5996 214.302C57.7539 215.623 55.7031 216.615 53.4473 217.275C51.1914 217.936 48.9014 218.267 46.5771 218.267H43.6035C40.0944 218.267 36.6536 217.913 33.2813 217.207C29.9089 216.501 26.8555 215.282 24.1211 213.55C21.3867 211.795 19.2106 209.368 17.5928 206.27C15.9749 203.171 15.166 199.217 15.166 194.409ZM41.3135 171.304L40.0146 176.362L15.2344 173.867L15.2344 148.335H21.0791L21.0791 168.501L34.6143 170.005C34.0902 169.093 33.6003 167.943 33.1445 166.553C32.6888 165.14 32.4609 163.522 32.4609 161.699C32.4609 159.398 32.8597 157.336 33.6572 155.513C34.432 153.69 35.5485 152.14 37.0068 150.864C38.4652 149.565 40.2197 148.574 42.2705 147.891C44.3213 147.207 46.6113 146.865 49.1406 146.865C51.5332 146.865 53.7321 147.196 55.7373 147.856C57.7425 148.494 59.4971 149.463 61.001 150.762C62.4821 152.061 63.6328 153.701 64.4531 155.684C65.2734 157.643 65.6836 159.956 65.6836 162.622C65.6836 164.627 65.4102 166.53 64.8633 168.33C64.2936 170.107 63.4391 171.702 62.2998 173.115C61.1377 174.505 59.7021 175.645 57.9932 176.533C56.2614 177.399 54.2334 177.946 51.9092 178.174V172.158C53.7777 171.885 55.3499 171.338 56.626 170.518C57.902 169.697 58.8704 168.626 59.5313 167.305C60.1693 165.96 60.4883 164.399 60.4883 162.622C60.4883 161.118 60.2262 159.785 59.7021 158.623C59.1781 157.461 58.4261 156.481 57.4463 155.684C56.4665 154.886 55.2816 154.282 53.8916 153.872C52.5016 153.439 50.9408 153.223 49.209 153.223C47.6367 153.223 46.1784 153.439 44.834 153.872C43.4896 154.305 42.3161 154.954 41.3135 155.82C40.3109 156.663 39.5361 157.7 38.9893 158.931C38.4196 160.161 38.1348 161.574 38.1348 163.169C38.1348 165.288 38.4196 166.895 38.9893 167.988C39.5589 169.059 40.3337 170.164 41.3135 171.304ZM59.8047 107.319H65V139.893H60.4541L42.3047 123.589C40.0716 121.584 38.1803 120.034 36.6309 118.94C35.0586 117.824 33.6572 117.049 32.4268 116.616C31.1735 116.16 29.8975 115.933 28.5986 115.933C26.958 115.933 25.4769 116.274 24.1553 116.958C22.8109 117.619 21.7399 118.599 20.9424 119.897C20.1449 121.196 19.7461 122.769 19.7461 124.614C19.7461 126.825 20.179 128.67 21.0449 130.151C21.888 131.61 23.0729 132.703 24.5996 133.433C26.1263 134.162 27.8809 134.526 29.8633 134.526V140.85C27.0605 140.85 24.4971 140.234 22.1729 139.004C19.8486 137.773 18.0029 135.951 16.6357 133.535C15.2458 131.12 14.5508 128.146 14.5508 124.614C14.5508 121.47 15.109 118.781 16.2256 116.548C17.3193 114.315 18.8688 112.606 20.874 111.421C22.8564 110.213 25.1807 109.609 27.8467 109.609C29.305 109.609 30.7861 109.86 32.29 110.361C33.7712 110.84 35.2523 111.512 36.7334 112.378C38.2145 113.221 39.6729 114.212 41.1084 115.352C42.5439 116.468 43.9567 117.664 45.3467 118.94L59.8047 132.271V107.319Z" fill="#85392C"/>
<path d="M90 0.00314498L93.087 483.003" stroke="black" stroke-width="2"/>
</svg>
