<svg width="37" height="37" viewBox="0 0 37 37" fill="none" xmlns="http://www.w3.org/2000/svg">
<path d="M11.84 2.22021C6.53604 2.22021 2.22 6.53625 2.22 11.8402V25.1602C2.22 30.4642 6.53604 34.7802 11.84 34.7802H25.16C30.464 34.7802 34.78 30.4642 34.78 25.1602V11.8402C34.78 6.53625 30.464 2.22021 25.16 2.22021H11.84ZM11.84 3.70021H25.16C29.664 3.70021 33.3 7.33622 33.3 11.8402V25.1602C33.3 29.6642 29.664 33.3002 25.16 33.3002H11.84C7.336 33.3002 3.7 29.6642 3.7 25.1602V11.8402C3.7 7.33622 7.336 3.70021 11.84 3.70021ZM27.38 8.14021C26.9875 8.14021 26.611 8.29614 26.3335 8.5737C26.0559 8.85125 25.9 9.22769 25.9 9.62021C25.9 10.0127 26.0559 10.3892 26.3335 10.6667C26.611 10.9443 26.9875 11.1002 27.38 11.1002C27.7725 11.1002 28.149 10.9443 28.4265 10.6667C28.7041 10.3892 28.86 10.0127 28.86 9.62021C28.86 9.22769 28.7041 8.85125 28.4265 8.5737C28.149 8.29614 27.7725 8.14021 27.38 8.14021ZM18.5 10.3602C14.0132 10.3602 10.36 14.0134 10.36 18.5002C10.36 22.987 14.0132 26.6402 18.5 26.6402C22.9868 26.6402 26.64 22.987 26.64 18.5002C26.64 14.0134 22.9868 10.3602 18.5 10.3602ZM18.5 11.8402C22.187 11.8402 25.16 14.8132 25.16 18.5002C25.16 22.1872 22.187 25.1602 18.5 25.1602C14.813 25.1602 11.84 22.1872 11.84 18.5002C11.84 14.8132 14.813 11.8402 18.5 11.8402Z" fill="#847B66"/>
</svg>
